<svg id="Layer_1" xmlns="http://www.w3.org/2000/svg" viewBox="0 0 28.7 23.3"><style>.st0{fill:#1d8dee}</style><path class="st0" d="M28.7 2.8c-1.1.5-2.2.8-3.4.9 1.2-.7 2.1-1.9 2.6-3.3-1.1.7-2.4 1.2-3.7 1.4C23.1.7 21.5 0 19.9 0 16.6 0 14 2.6 14 5.9c0 .5.1.9.2 1.3C9.2 7 4.9 4.6 2 1.1c-.5.8-.8 1.9-.8 2.9 0 2 1 3.8 2.6 4.9-1 0-1.9-.3-2.7-.7v.1c0 2.9 2 5.2 4.7 5.8-.5.1-1 .2-1.5.2-.4 0-.7 0-1.1-.1.7 2.3 2.9 4 5.5 4.1-2 1.6-4.5 2.5-7.3 2.5-.5 0-.9 0-1.4-.1 2.6 1.7 5.7 2.6 9 2.6 10.8 0 16.7-9 16.7-16.7v-.8c1.2-.8 2.2-1.9 3-3z"/></svg>